<svg width="35" height="35" viewBox="0 0 42 42" fill="none" xmlns="http://www.w3.org/2000/svg">
<path d="M35.7506 4.98975H6.29145C5.58299 4.98975 5.01062 5.56212 5.01062 6.27058V35.7297C5.01062 36.4382 5.58299 37.0105 6.29145 37.0105H35.7506C36.459 37.0105 37.0314 36.4382 37.0314 35.7297V6.27058C37.0314 5.56212 36.459 4.98975 35.7506 4.98975ZM32.0522 14.3358H29.4945C27.4892 14.3358 27.101 15.2884 27.101 16.6893V19.7753H31.8881L31.2637 24.6065H27.101V37.0105H22.1097V24.6105H17.935V19.7753H22.1097V16.213C22.1097 12.0783 24.6354 9.82488 28.3257 9.82488C30.0949 9.82488 31.6119 9.95697 32.0562 10.017V14.3358H32.0522Z" fill="white"/>
</svg>
