<svg width="22" height="35" viewBox="0 0 27 22" fill="none" xmlns="http://www.w3.org/2000/svg">
<path d="M25.3125 0.490723H0.9375C0.418945 0.490723 0 0.909668 0 1.42822V20.1782C0 20.6968 0.418945 21.1157 0.9375 21.1157H25.3125C25.8311 21.1157 26.25 20.6968 26.25 20.1782V1.42822C26.25 0.909668 25.8311 0.490723 25.3125 0.490723ZM24.1406 3.73682V19.0063H2.10938V3.73682L1.30078 3.10693L2.45215 1.62744L3.70605 2.60303H22.5469L23.8008 1.62744L24.9521 3.10693L24.1406 3.73682ZM22.5469 2.6001L13.125 9.92432L3.70312 2.6001L2.44922 1.62451L1.29785 3.104L2.10645 3.73389L12.1143 11.5151C12.4021 11.7387 12.7561 11.8601 13.1206 11.8601C13.4851 11.8601 13.8391 11.7387 14.127 11.5151L24.1406 3.73682L24.9492 3.10693L23.7979 1.62744L22.5469 2.6001Z" fill="#2091F9"/>
</svg>
