<svg width="22" height="35" viewBox="0 0 26 33" fill="none" xmlns="http://www.w3.org/2000/svg">
<g clip-path="url(#clip0_1_603)">
<path d="M12.9998 19.4699C16.4927 19.4699 19.3332 16.6294 19.3332 13.1366C19.3332 9.64372 16.4927 6.80322 12.9998 6.80322C9.507 6.80322 6.6665 9.64372 6.6665 13.1366C6.6665 16.6294 9.507 19.4699 12.9998 19.4699ZM12.9998 9.96989C14.7463 9.96989 16.1665 11.3901 16.1665 13.1366C16.1665 14.883 14.7463 16.3032 12.9998 16.3032C11.2534 16.3032 9.83317 14.883 9.83317 13.1366C9.83317 11.3901 11.2534 9.96989 12.9998 9.96989Z" fill="#2091F9"/>
<path d="M11.7487 31.842C12.0166 32.0334 12.3377 32.1363 12.667 32.1363C12.9963 32.1363 13.3173 32.0334 13.5853 31.842C14.0667 31.5016 25.3796 23.3332 25.3337 13.1365C25.3337 6.15243 19.6511 0.469849 12.667 0.469849C5.68291 0.469849 0.000322499 6.15243 0.000322499 13.1286C-0.0455942 23.3332 11.2673 31.5016 11.7487 31.842ZM12.667 3.63652C17.9062 3.63652 22.167 7.89727 22.167 13.1444C22.2002 20.1713 15.2193 26.4808 12.667 28.5503C10.1162 26.4793 3.13374 20.1681 3.16699 13.1365C3.16699 7.89726 7.42774 3.63652 12.667 3.63652Z" fill="#2091F9"/>
</g>
<defs>
<clipPath id="clip0_1_603">
<rect width="26" height="32" fill="white" transform="translate(0 0.303223)"/>
</clipPath>
</defs>
</svg>
