<svg width="36" height="36" viewBox="0 0 46 47" fill="none" xmlns="http://www.w3.org/2000/svg">
<path d="M23 27.1366C27.2282 27.1366 30.6667 23.6981 30.6667 19.4699C30.6667 15.2417 27.2282 11.8032 23 11.8032C18.7719 11.8032 15.3334 15.2417 15.3334 19.4699C15.3334 23.6981 18.7719 27.1366 23 27.1366ZM23 15.6366C25.1141 15.6366 26.8334 17.3558 26.8334 19.4699C26.8334 21.584 25.1141 23.3032 23 23.3032C20.886 23.3032 19.1667 21.584 19.1667 19.4699C19.1667 17.3558 20.886 15.6366 23 15.6366Z" fill="white"/>
<path d="M21.8885 42.1134C22.2129 42.3451 22.6015 42.4696 23.0001 42.4696C23.3987 42.4696 23.7874 42.3451 24.1118 42.1134C24.6945 41.7013 38.389 31.8133 38.3335 19.4699C38.3335 11.0155 31.4545 4.1366 23.0001 4.1366C14.5457 4.1366 7.66679 11.0155 7.66679 19.4603C7.61121 31.8133 21.3058 41.7013 21.8885 42.1134ZM23.0001 7.96993C29.3424 7.96993 34.5001 13.1277 34.5001 19.4795C34.5404 27.9857 26.0898 35.6236 23.0001 38.1287C19.9124 35.6217 11.4599 27.9818 11.5001 19.4699C11.5001 13.1277 16.6579 7.96993 23.0001 7.96993Z" fill="white"/>
</svg>
