<svg width="172" height="42" viewBox="0 0 172 42" fill="none" xmlns="http://www.w3.org/2000/svg">
<g clip-path="url(#clip0_2_1441)">
<path d="M37.665 10.7881C36.4402 11.3164 35.1074 11.6967 33.7345 11.8448C35.1599 10.998 36.2273 9.66014 36.7364 8.08232C35.3989 8.87799 33.9336 9.43593 32.4056 9.73139C31.767 9.04865 30.9946 8.50475 30.1366 8.13358C29.2785 7.76241 28.3533 7.57193 27.4184 7.57399C23.6359 7.57399 20.594 10.64 20.594 14.4024C20.594 14.9308 20.658 15.4591 20.7621 15.9674C15.0984 15.6712 10.0471 12.9655 6.68895 8.8228C6.07705 9.86794 5.7564 11.058 5.76034 12.269C5.76034 14.6386 6.96513 16.7279 8.80232 17.9567C7.71963 17.9141 6.6623 17.6165 5.71632 17.0882V17.1722C5.71632 20.4904 8.06184 23.2402 11.1879 23.8726C10.6009 24.025 9.99712 24.103 9.3907 24.1047C8.94641 24.1047 8.52614 24.0607 8.10186 24.0007C8.96642 26.7064 11.4841 28.6717 14.482 28.7357C12.1365 30.5729 9.19858 31.6536 6.00851 31.6536C5.43613 31.6536 4.90779 31.6336 4.35944 31.5696C7.3854 33.5108 10.9757 34.6315 14.8422 34.6315C27.3944 34.6315 34.2628 24.2328 34.2628 15.2069C34.2628 14.9108 34.2628 14.6146 34.2428 14.3184C35.5717 13.3457 36.7364 12.141 37.665 10.7881Z" fill="#2091F9"/>
<path d="M100.73 5.09229H71.2713C70.5628 5.09229 69.9905 5.66466 69.9905 6.37312V35.8322C69.9905 36.5407 70.5628 37.1131 71.2713 37.1131H100.73C101.439 37.1131 102.011 36.5407 102.011 35.8322V6.37312C102.011 5.66466 101.439 5.09229 100.73 5.09229ZM97.032 14.4383H94.4744C92.4691 14.4383 92.0808 15.391 92.0808 16.7919V19.8779H96.8679L96.2435 24.709H92.0808V37.1131H87.0896V24.713H82.9149V19.8779H87.0896V16.3156C87.0896 12.1809 89.6152 9.92742 93.3056 9.92742C95.0748 9.92742 96.5917 10.0595 97.036 10.1195V14.4383H97.032Z" fill="#2091F9"/>
<path d="M165.718 5.09229H136.259C135.551 5.09229 134.978 5.66466 134.978 6.37312V35.8322C134.978 36.5407 135.551 37.1131 136.259 37.1131H165.718C166.427 37.1131 166.999 36.5407 166.999 35.8322V6.37312C166.999 5.66466 166.427 5.09229 165.718 5.09229ZM144.476 32.378H139.725V17.0961H144.476V32.378ZM142.103 15.0067C141.558 15.0067 141.026 14.8452 140.573 14.5426C140.12 14.24 139.767 13.8099 139.559 13.3068C139.35 12.8036 139.296 12.2499 139.402 11.7157C139.508 11.1815 139.771 10.6908 140.156 10.3057C140.541 9.92059 141.031 9.65831 141.566 9.55206C142.1 9.4458 142.654 9.50034 143.157 9.70876C143.66 9.91719 144.09 10.2702 144.393 10.723C144.695 11.1759 144.857 11.7083 144.857 12.2529C144.853 13.7739 143.62 15.0067 142.103 15.0067ZM162.264 32.378H157.517V24.9452C157.517 23.172 157.485 20.8945 155.047 20.8945C152.578 20.8945 152.197 22.8238 152.197 24.8171V32.378H147.454V17.0961H152.009V19.1854H152.073C152.706 17.9847 154.255 16.7158 156.568 16.7158C161.379 16.7158 162.264 19.8819 162.264 23.9966V32.378Z" fill="#2091F9"/>
</g>
<defs>
<clipPath id="clip0_2_1441">
<rect width="170.96" height="40.9866" fill="white" transform="translate(0.520111 0.609375)"/>
</clipPath>
</defs>
</svg>
