<svg width="35" height="35" viewBox="0 0 34 28" fill="none" xmlns="http://www.w3.org/2000/svg">
<path d="M33.6852 3.68529C32.4604 4.21364 31.1276 4.59388 29.7547 4.74198C31.1801 3.89517 32.2475 2.55736 32.7566 0.979538C31.4191 1.77521 29.9538 2.33315 28.4258 2.62861C27.7872 1.94587 27.0148 1.40197 26.1568 1.0308C25.2987 0.65963 24.3735 0.469143 23.4386 0.471208C19.6561 0.471208 16.6142 3.5372 16.6142 7.29964C16.6142 7.82798 16.6782 8.35632 16.7823 8.86465C11.1186 8.56846 6.06733 5.86271 2.70915 1.72002C2.09725 2.76516 1.7766 3.95517 1.78055 5.16625C1.78055 7.53579 2.98533 9.62515 4.82252 10.8539C3.73984 10.8113 2.6825 10.5137 1.73652 9.98538V10.0694C1.73652 13.3876 4.08204 16.1374 7.20807 16.7698C6.62112 16.9222 6.01732 17.0002 5.4109 17.0019C4.96661 17.0019 4.54634 16.9579 4.12207 16.8979C4.98663 19.6036 7.50426 21.5689 10.5022 21.6329C8.15668 23.4701 5.21878 24.5508 2.02871 24.5508C1.45634 24.5508 0.927994 24.5308 0.379639 24.4668C3.4056 26.408 6.99593 27.5288 10.8624 27.5288C23.4146 27.5288 30.283 17.13 30.283 8.10416C30.283 7.80797 30.283 7.51178 30.263 7.21558C31.5919 6.24295 32.7566 5.03817 33.6852 3.68529Z" fill="white"/>
</svg>
